
        <svg xmlns="http://www.w3.org/2000/svg" xmlns:xlink="http://www.w3.org/1999/xlink" version="1.1" width="3181.8181818181824" height="1090.909090909091" viewBox="0 0 3181.8181818181824 1090.909090909091">
			
			<g transform="scale(9.090909090909092) translate(10, 10)">
				<defs id="SvgjsDefs2498"/><g id="SvgjsG2499" featureKey="symbolContainer" transform="matrix(1,0,0,1,0,0)" fill="#000"><rect width="110" height="100" rx="8"/></g><g id="SvgjsG2500" featureKey="symbolFeature-0" transform="matrix(0.7823201698910622,0,0,0.7823201698910622,15.757805730668505,10.931934519703553)" fill="#ffffff"><path xmlns="http://www.w3.org/2000/svg" d="M56.8,46.6l2.5,2.5l21.6-21.1c0.7-0.7,1.6-1.2,2.6-1.5c-1.7-0.3-3.3-1-4.9-1.9c-2.5-1.5-4.5-3.5-5.7-5.6  c0,1.6-0.7,3.3-2,4.5L49.2,43.9l5.1,5.1L56.8,46.6z"/><path xmlns="http://www.w3.org/2000/svg" d="M49,54.3L43.7,49L22,69.5c-0.8,0.8-1.8,1.3-2.9,1.5c1.5,0.4,3.1,1,4.5,1.9c3,1.7,5.4,4.2,6.7,6.9c0-1.6,0.7-3.2,1.8-4.3  l16.8-16.4l-2.3-2.3L49,54.3z"/><path xmlns="http://www.w3.org/2000/svg" d="M23.4,73.3c-2.6-1.5-5.5-2.3-8.2-2.3c-3.5,0-6.3,1.4-7.6,3.7c-3,5.2-2.9,10.9,0.3,14l6.1-10.5l0.1,0  c1.7-0.3,3.9,0.2,5.8,1.3c1.9,1.1,3.3,2.7,4,4.4l0,0.1l-6.1,10.5c0.7,0.2,1.4,0.3,2.1,0.3c3.8,0,7.7-2.7,10.2-7  c1.2-2.1,1.2-4.7-0.1-7.4C28.7,77.5,26.4,75.1,23.4,73.3z"/><path xmlns="http://www.w3.org/2000/svg" d="M78.8,24.1c2.3,1.3,4.9,2.1,7.2,2.1c3.1,0,5.5-1.2,6.7-3.3c0.2-0.3,0.3-0.6,0.5-0.9c2.2-4.3,1.9-8.9-0.7-11.5l-5.3,9.2  l-0.1,0c-0.3,0.1-0.6,0.1-1,0.1c-1.3,0-2.8-0.4-4.1-1.2c-1.7-1-3-2.4-3.5-3.9l0-0.1l5.3-9.2c-0.6-0.2-1.2-0.2-1.8-0.2  c-3.4,0-6.8,2.4-9,6.2C70.7,15.3,73.3,20.9,78.8,24.1z"/><polygon xmlns="http://www.w3.org/2000/svg" points="51.7,51.7 54,49.4 13.5,8.9 13.3,8.8 13.3,13.6 5.7,6.1 8.9,13.5 49.4,54 "/><polygon xmlns="http://www.w3.org/2000/svg" points="12.8,8.6 6.1,5.7 12.8,12.4 "/><path xmlns="http://www.w3.org/2000/svg" d="M76.9,65c-1.2-1.2-2.6-2.2-4.1-2.9l-10.4-4.8c-0.6-0.3-1.2-0.7-1.7-1.2C59.6,55,59,53.5,59,52v-2.5l-2.2-2.2l-9.5,9.5  l2.2,2.2H52c1.6,0,3.1,0.6,4.2,1.7c0.5,0.5,0.9,1.1,1.2,1.7l4.8,10.4c0.7,1.5,1.7,2.9,2.9,4.1l15.4,15.4c1.5,1.5,3.6,2.4,5.8,2.4  h0.4c2.2,0,4.2-0.8,5.8-2.4c1.5-1.5,2.4-3.6,2.4-5.8v-0.4c0-2.2-0.8-4.2-2.4-5.8L76.9,65z"/></g><g id="SvgjsG2501" featureKey="nameFeature-0" transform="matrix(1.5527949942643302,0,0,1.5527949942643302,127.01863497340433,5.540372468453818)" fill="#000"><path d="M13.4 40.4 c-3.8 0 -7.4 -1.2 -10.52 -3.52 c-0.56 -0.4 -0.96 -1.08 -0.96 -1.88 c0 -1.28 1.04 -2.28 2.32 -2.28 c0.68 0 1.12 0.2 1.44 0.44 c2.32 1.84 4.8 2.88 7.84 2.88 s4.96 -1.44 4.96 -3.52 l0 -0.08 c0 -2 -1.12 -3.08 -6.32 -4.28 c-5.96 -1.44 -9.32 -3.2 -9.32 -8.36 l0 -0.08 c0 -4.8 4 -8.12 9.56 -8.12 c3.52 0 6.36 0.92 8.88 2.6 c0.56 0.32 1.08 1 1.08 1.96 c0 1.28 -1.04 2.28 -2.32 2.28 c-0.48 0 -0.88 -0.12 -1.28 -0.36 c-2.16 -1.4 -4.24 -2.12 -6.44 -2.12 c-2.88 0 -4.56 1.48 -4.56 3.32 l0 0.08 c0 2.16 1.28 3.12 6.68 4.4 c5.92 1.44 8.96 3.56 8.96 8.2 l0 0.08 c0 5.24 -4.12 8.36 -10 8.36 z M49.400000000000006 21.08 l0 23.12 c0 1.36 -1.08 2.4 -2.4 2.4 c-1.36 0 -2.44 -1.04 -2.44 -2.4 l0 -7.72 c-1.56 2.2 -3.76 3.96 -7.2 3.96 c-4.96 0 -9.8 -3.96 -9.8 -10.96 l0 -0.08 c0 -7 4.76 -10.96 9.8 -10.96 c3.48 0 5.68 1.72 7.2 3.72 l0 -1.12 c0 -1.32 1.08 -2.4 2.4 -2.4 c1.36 0 2.44 1.08 2.44 2.44 z M38.52 22.64 c-3.32 0 -6.08 2.56 -6.08 6.76 l0 0.08 c0 4.08 2.8 6.76 6.08 6.76 c3.24 0 6.12 -2.72 6.12 -6.76 l0 -0.08 c0 -4.08 -2.88 -6.76 -6.12 -6.76 z M74.24 21.08 l0 16.72 c0 1.32 -1.08 2.4 -2.44 2.4 c-1.32 0 -2.44 -1.04 -2.44 -2.4 l0 -1.08 c-1.36 2 -3.32 3.72 -6.6 3.72 c-4.76 0 -7.52 -3.2 -7.52 -8.12 l0 -11.24 c0 -1.36 1.08 -2.44 2.4 -2.44 c1.36 0 2.44 1.08 2.44 2.44 l0 9.8 c0 3.28 1.64 5.12 4.52 5.12 c2.8 0 4.76 -1.92 4.76 -5.2 l0 -9.72 c0 -1.36 1.08 -2.44 2.44 -2.44 c1.32 0 2.44 1.08 2.44 2.44 z M80.19999999999999 13.440000000000001 l0 -0.24 c0 -1.44 1.2 -2.36 2.76 -2.36 s2.76 0.92 2.76 2.36 l0 0.24 c0 1.44 -1.2 2.4 -2.76 2.4 s-2.76 -0.96 -2.76 -2.4 z M80.55999999999999 37.8 l0 -16.72 c0 -1.36 1.04 -2.44 2.4 -2.44 s2.44 1.08 2.44 2.44 l0 16.72 c0 1.36 -1.08 2.4 -2.44 2.4 c-1.32 0 -2.4 -1.04 -2.4 -2.4 z M98.96 40.4 c-2.68 0 -5.6 -0.84 -8.04 -2.52 c-0.52 -0.28 -0.92 -0.88 -0.92 -1.68 c0 -1.08 0.84 -1.96 1.96 -1.96 c0.4 0 0.76 0.12 1.04 0.28 c2.04 1.36 4.16 2.04 6.08 2.04 c2.08 0 3.28 -0.88 3.28 -2.28 l0 -0.08 c0 -1.64 -2.24 -2.2 -4.72 -2.96 c-3.12 -0.88 -6.6 -2.16 -6.6 -6.2 l0 -0.08 c0 -4 3.32 -6.44 7.52 -6.44 c2.24 0 4.6 0.64 6.64 1.72 c0.68 0.36 1.16 1 1.16 1.84 c0 1.12 -0.88 1.96 -2 1.96 c-0.4 0 -0.64 -0.08 -0.96 -0.24 c-1.72 -0.88 -3.48 -1.44 -4.96 -1.44 c-1.88 0 -2.96 0.88 -2.96 2.08 l0 0.08 c0 1.56 2.28 2.2 4.76 3 c3.08 0.96 6.56 2.36 6.56 6.16 l0 0.08 c0 4.44 -3.44 6.64 -7.84 6.64 z M111.76 37.8 l0 -24.8 c0 -1.32 1.04 -2.4 2.4 -2.4 s2.44 1.08 2.44 2.4 l0 9.12 c1.36 -1.96 3.32 -3.68 6.6 -3.68 c4.76 0 7.52 3.2 7.52 8.08 l0 11.28 c0 1.36 -1.04 2.4 -2.4 2.4 s-2.44 -1.04 -2.44 -2.4 l0 -9.8 c0 -3.28 -1.64 -5.16 -4.52 -5.16 c-2.8 0 -4.76 1.96 -4.76 5.24 l0 9.72 c0 1.36 -1.08 2.4 -2.44 2.4 c-1.32 0 -2.4 -1.04 -2.4 -2.4 z"/></g>
			</g>
		</svg>
	